<svg width="720" height="240" viewBox="0 0 720 240" fill="none" xmlns="http://www.w3.org/2000/svg">
<rect width="720" height="240" fill="#D9D9D9"/>
<path fill-rule="evenodd" clip-rule="evenodd" d="M382.5 90C389.404 90 395 95.5964 395 102.5C395 109.404 389.404 115 382.5 115C375.596 115 370 109.404 370 102.5C370 95.5964 375.596 90 382.5 90ZM382.5 95C378.358 95 375 98.3579 375 102.5C375 106.642 378.358 110 382.5 110C386.642 110 390 106.642 390 102.5C390 98.3579 386.642 95 382.5 95Z" fill="white"/>
<path fill-rule="evenodd" clip-rule="evenodd" d="M398.31 70.0039C398.454 70.0076 398.598 70.0147 398.741 70.0234C398.804 70.0273 398.867 70.0304 398.93 70.0352C399.109 70.0489 399.286 70.0674 399.463 70.0889C399.488 70.092 399.514 70.0944 399.539 70.0977C399.716 70.1203 399.892 70.1474 400.066 70.1777C400.08 70.1801 400.093 70.1822 400.106 70.1846C400.248 70.2096 400.388 70.2386 400.527 70.2686C400.637 70.2921 400.747 70.3181 400.855 70.3447C400.941 70.3655 401.026 70.3865 401.11 70.4092C401.206 70.4348 401.301 70.4614 401.396 70.4893C401.497 70.5192 401.599 70.5504 401.699 70.583C401.785 70.6108 401.87 70.6403 401.955 70.6699C402.043 70.7007 402.131 70.7318 402.219 70.7646C402.323 70.804 402.427 70.8456 402.53 70.8877C402.606 70.9188 402.682 70.9498 402.758 70.9824C402.86 71.0266 402.961 71.0732 403.062 71.1201C403.135 71.1543 403.209 71.188 403.281 71.2236C403.378 71.2714 403.475 71.3208 403.57 71.3711C403.648 71.4118 403.725 71.4528 403.802 71.4951C403.891 71.5445 403.979 71.5959 404.066 71.6475C404.144 71.693 404.222 71.738 404.298 71.7852C404.393 71.844 404.487 71.9054 404.58 71.9668C404.641 72.0069 404.702 72.0467 404.763 72.0879C404.858 72.1528 404.951 72.2196 405.044 72.2871C405.11 72.3349 405.175 72.3826 405.24 72.4316C405.331 72.5004 405.42 72.5713 405.509 72.6426C405.565 72.6877 405.621 72.7322 405.677 72.7783C405.765 72.8518 405.851 72.928 405.937 73.0039C405.999 73.0589 406.062 73.1127 406.123 73.1689C406.19 73.2305 406.255 73.2943 406.32 73.3574C406.395 73.4295 406.47 73.5013 406.543 73.5752C406.6 73.6326 406.655 73.6915 406.71 73.75C406.785 73.8291 406.86 73.9081 406.933 73.9893C406.994 74.058 407.054 74.1281 407.114 74.1982C407.175 74.2691 407.236 74.3398 407.295 74.4121C407.36 74.492 407.423 74.5737 407.486 74.6553C407.541 74.7255 407.596 74.7948 407.649 74.8662C407.714 74.9533 407.775 75.043 407.837 75.1318C407.88 75.1927 407.923 75.2527 407.965 75.3145C408.027 75.4073 408.087 75.502 408.146 75.5967C408.193 75.6708 408.242 75.7441 408.287 75.8193C408.339 75.9051 408.387 75.9929 408.437 76.0801C408.48 76.1565 408.525 76.2322 408.566 76.3096C408.603 76.3765 408.636 76.445 408.671 76.5127C408.723 76.6141 408.776 76.7153 408.825 76.8184C408.862 76.8948 408.896 76.9725 408.931 77.0498C408.978 77.1532 409.025 77.2564 409.069 77.3613C409.115 77.4712 409.157 77.5828 409.2 77.6943C409.226 77.7614 409.254 77.8278 409.278 77.8955C409.301 77.9585 409.322 78.0224 409.344 78.0859C409.387 78.2103 409.43 78.3348 409.469 78.4609C409.489 78.5278 409.507 78.5957 409.526 78.6631C409.56 78.7808 409.595 78.8984 409.626 79.0176C409.68 79.2273 409.727 79.4393 409.77 79.6533C409.803 79.8233 409.834 79.9945 409.86 80.167C409.866 80.2007 409.869 80.2347 409.874 80.2686C409.926 80.6255 409.963 80.9872 409.982 81.3535C409.987 81.4444 409.99 81.5356 409.993 81.627C409.997 81.7509 410 81.8752 410 82V158C410 158.249 409.991 158.496 409.976 158.741C409.972 158.802 409.969 158.862 409.965 158.923C409.951 159.104 409.932 159.284 409.91 159.463C409.908 159.485 409.906 159.507 409.903 159.528C409.86 159.866 409.801 160.199 409.73 160.527C409.707 160.637 409.681 160.747 409.654 160.855C409.633 160.941 409.612 161.026 409.59 161.11C409.564 161.205 409.538 161.3 409.511 161.394C409.481 161.496 409.449 161.598 409.416 161.699C409.388 161.785 409.359 161.87 409.329 161.955C409.298 162.043 409.267 162.131 409.234 162.219C409.195 162.323 409.153 162.427 409.111 162.53C409.08 162.606 409.049 162.682 409.017 162.758C408.972 162.86 408.926 162.961 408.879 163.062C408.845 163.135 408.811 163.209 408.775 163.281C408.732 163.37 408.687 163.459 408.641 163.547C408.596 163.632 408.551 163.717 408.504 163.802C408.458 163.884 408.412 163.965 408.364 164.046C408.315 164.13 408.265 164.215 408.214 164.298C408.156 164.391 408.096 164.483 408.036 164.575C407.995 164.638 407.954 164.701 407.911 164.763C407.846 164.858 407.779 164.951 407.712 165.044C407.664 165.11 407.616 165.175 407.567 165.24C407.499 165.331 407.428 165.42 407.356 165.509C407.311 165.565 407.267 165.621 407.221 165.677C407.147 165.765 407.072 165.851 406.996 165.937C406.941 165.999 406.886 166.062 406.83 166.123C406.768 166.19 406.705 166.255 406.642 166.32C406.57 166.395 406.498 166.47 406.424 166.543C406.366 166.6 406.308 166.655 406.249 166.71C406.17 166.785 406.091 166.86 406.01 166.933C405.941 166.994 405.871 167.054 405.801 167.114C405.73 167.175 405.659 167.236 405.587 167.295C405.507 167.36 405.425 167.423 405.344 167.486C405.274 167.541 405.204 167.597 405.133 167.649C405.046 167.714 404.956 167.775 404.867 167.837C404.802 167.883 404.737 167.929 404.671 167.974C404.582 168.033 404.492 168.09 404.402 168.146C404.328 168.193 404.255 168.242 404.18 168.287C404.094 168.339 404.006 168.387 403.919 168.437C403.839 168.482 403.759 168.529 403.678 168.572C403.586 168.622 403.493 168.668 403.399 168.715C403.323 168.754 403.247 168.794 403.169 168.831C403.071 168.878 402.972 168.921 402.873 168.965C402.795 169 402.717 169.036 402.638 169.069C402.528 169.115 402.416 169.157 402.305 169.2C402.238 169.226 402.171 169.254 402.104 169.278C402.009 169.313 401.912 169.344 401.816 169.376C401.721 169.408 401.626 169.442 401.529 169.472C401.448 169.497 401.365 169.518 401.283 169.541C401.183 169.57 401.083 169.6 400.981 169.626C400.834 169.664 400.685 169.696 400.535 169.729C400.492 169.738 400.449 169.749 400.406 169.758C400.381 169.763 400.355 169.767 400.33 169.772C400.165 169.805 399.999 169.835 399.832 169.86C399.798 169.866 399.764 169.869 399.73 169.874C399.56 169.899 399.389 169.921 399.217 169.938C399.204 169.94 399.191 169.941 399.179 169.942C399.002 169.96 398.824 169.973 398.646 169.982C398.555 169.987 398.463 169.99 398.372 169.993C398.248 169.997 398.124 170 398 170H322C315.373 170 310 164.627 310 158V82C310 81.7831 310.005 81.5676 310.017 81.3535C310.036 80.9872 310.073 80.6254 310.125 80.2686C310.13 80.2347 310.134 80.2007 310.139 80.167C310.165 79.9944 310.197 79.8234 310.23 79.6533C310.273 79.4394 310.319 79.2272 310.373 79.0176C310.404 78.8983 310.44 78.7809 310.474 78.6631C310.493 78.5957 310.511 78.5278 310.531 78.4609C310.57 78.3348 310.613 78.2103 310.656 78.0859C310.678 78.0225 310.698 77.9584 310.721 77.8955C310.745 77.8278 310.773 77.7614 310.799 77.6943C310.842 77.5829 310.884 77.4712 310.93 77.3613C310.974 77.2563 311.022 77.1533 311.069 77.0498C311.104 76.9725 311.138 76.8948 311.175 76.8184C311.224 76.7153 311.277 76.6141 311.329 76.5127C311.364 76.445 311.397 76.3765 311.434 76.3096C311.475 76.2323 311.519 76.1563 311.562 76.0801C311.612 75.9929 311.66 75.9051 311.712 75.8193C311.757 75.7441 311.806 75.6708 311.853 75.5967C311.912 75.5019 311.973 75.4074 312.035 75.3145C312.077 75.2529 312.12 75.1926 312.162 75.1318C312.224 75.043 312.285 74.9533 312.35 74.8662C312.403 74.7948 312.458 74.7255 312.513 74.6553C312.576 74.5737 312.639 74.492 312.704 74.4121C312.763 74.3398 312.824 74.2691 312.885 74.1982C312.945 74.1281 313.005 74.058 313.066 73.9893C313.139 73.9081 313.214 73.8291 313.289 73.75C313.344 73.6915 313.399 73.6326 313.456 73.5752C313.529 73.5013 313.604 73.4295 313.679 73.3574C313.744 73.2943 313.809 73.2305 313.876 73.1689C313.937 73.1127 314 73.0589 314.062 73.0039C314.148 72.928 314.234 72.8518 314.322 72.7783C314.378 72.7322 314.434 72.6877 314.49 72.6426C314.579 72.5713 314.668 72.5004 314.759 72.4316C314.824 72.3826 314.889 72.3349 314.955 72.2871C315.048 72.2196 315.141 72.1528 315.236 72.0879C315.297 72.0467 315.358 72.0069 315.419 71.9668C315.512 71.9054 315.606 71.844 315.701 71.7852C315.778 71.738 315.855 71.693 315.933 71.6475C316.02 71.5959 316.108 71.5445 316.197 71.4951C316.274 71.4527 316.351 71.4118 316.429 71.3711C316.524 71.3208 316.621 71.2714 316.718 71.2236C316.79 71.188 316.864 71.1544 316.938 71.1201C317.038 71.0732 317.139 71.0266 317.241 70.9824C317.317 70.9498 317.393 70.9188 317.469 70.8877C317.572 70.8455 317.676 70.804 317.78 70.7646C317.868 70.7318 317.956 70.7007 318.044 70.6699C318.129 70.6403 318.214 70.6108 318.3 70.583C318.4 70.5504 318.502 70.5193 318.604 70.4893C318.698 70.4614 318.793 70.4348 318.889 70.4092C318.973 70.3865 319.058 70.3656 319.144 70.3447C319.252 70.3181 319.362 70.2922 319.472 70.2686C319.611 70.2386 319.751 70.2096 319.893 70.1846C319.906 70.1822 319.919 70.1801 319.933 70.1777C320.107 70.1474 320.283 70.1203 320.46 70.0977C320.485 70.0944 320.511 70.092 320.536 70.0889C320.713 70.0674 320.89 70.0489 321.069 70.0352C321.075 70.0347 321.08 70.0346 321.086 70.0342L321.383 70.0156C321.587 70.0053 321.793 70 322 70H398L398.31 70.0039ZM343.162 130.357C338.719 126.671 332.281 126.671 327.838 130.357L315 141.009V158C315 161.866 318.134 165 322 165H384.332C383.749 164.205 383.049 163.452 382.221 162.765L343.162 130.357ZM322 75C321.789 75 321.581 75.0101 321.375 75.0283C317.802 75.3445 315 78.3447 315 82V134.512L324.646 126.51C330.94 121.288 340.06 121.288 346.354 126.51L385.413 158.917C387.526 160.67 389.08 162.754 390.1 165H398C398.21 165 398.418 164.989 398.624 164.971C402.198 164.655 405 161.656 405 158V82C405 81.8831 404.997 81.7669 404.991 81.6514C404.982 81.4577 404.962 81.2664 404.938 81.0771C404.486 77.6475 401.553 75 398 75H322Z" fill="white"/>
</svg>
