<svg width="200" height="200" viewBox="0 0 200 200" fill="none" xmlns="http://www.w3.org/2000/svg">
<path d="M50 86.7568C50 86.7568 47 80 40 80C33 80 30 86.7568 30 86.7568V147C30 151.418 33.5817 155 38 155H50V86.7568Z" fill="#FC7CEC"/>
<path d="M170 86.7568C170 86.7568 167 80 160 80C153 80 150 86.7568 150 86.7568V155H162C166.418 155 170 151.418 170 147V86.7568Z" fill="#FC7CEC"/>
<path fill-rule="evenodd" clip-rule="evenodd" d="M200 12C200 5.37258 194.627 0 188 0H12C5.37258 0 0 5.37258 0 12V188C0 194.627 5.37258 200 12 200H188C194.627 200 200 194.627 200 188V12ZM160 72C149.5 72 145 82 145 82V126C145 126 131.5 106 100 106C68.5 106 55 126 55 126V82C55 82 50.5 72 40 72C29.5 72 25 82 25 82V175C25 179.418 28.5817 183 33 183H65V134.143C65.0416 134.075 75.5486 117 100 117C124.451 117 134.958 134.075 135 134.143V183H167C171.418 183 175 179.418 175 175V82C175 82 170.5 72 160 72ZM80 132C73 132 70 136.595 70 136.595V183H82C86.4183 183 90 179.418 90 175V136.595C90 136.595 87 132 80 132ZM120 132C113 132 110 136.595 110 136.595V175C110 179.418 113.582 183 118 183H130V136.595C130 136.595 127 132 120 132ZM98.0342 56.7607C98.0064 56.7562 93.8643 56.0831 89.334 57.9678L88.8936 58.1592C84.1796 60.2865 80.3045 66.6942 78.7744 72.1748C77.2523 77.6281 78.357 83.9364 78.3682 84C78.3682 84 84.7102 83.1149 89.417 79.957L89.8594 79.6553C94.424 76.4456 98.9998 70.9495 99.5361 65.9414L99.5811 65.459C99.9137 61.163 98.4941 57.7547 98.1211 56.9443L98.0342 56.7607ZM110.666 57.9678C106.709 56.3215 103.048 56.6278 102.167 56.7344L101.966 56.7607C101.948 56.7956 100.039 60.5471 100.419 65.459L100.464 65.9414C101.017 71.1109 105.876 76.799 110.583 79.957C115.278 83.1072 121.601 83.9957 121.632 84C121.642 83.9436 122.749 77.6313 121.226 72.1748L121.075 71.6592C119.453 66.2985 115.673 60.2201 111.106 58.1592L110.666 57.9678ZM92.6719 44.6807C89.2048 40.826 81.952 39.0979 76.2998 39.3271C70.6701 39.5557 65.0448 42.5677 65 42.5918C65.024 42.6414 67.8156 48.404 72.2354 51.918L72.6582 52.2471C77.1018 55.624 83.7083 58.3055 88.6064 57.2715L89.0752 57.166C93.2382 56.157 96.0214 53.7441 96.6719 53.1367L96.8184 52.9961C96.8109 52.9478 96.1623 48.7884 92.9893 45.0439L92.6719 44.6807ZM123.166 39.3105C117.599 39.2071 110.687 40.9463 107.328 44.6807L107.011 45.0439C104.232 48.3232 103.389 51.9213 103.218 52.7969L103.182 52.9961C103.201 53.0162 106.159 56.0109 110.925 57.166L111.394 57.2715C116.45 58.3389 123.326 55.4468 127.765 51.918C132.182 48.4061 134.973 42.6483 135 42.5918C134.964 42.5724 129.334 39.5559 123.7 39.3271L123.166 39.3105ZM100 17C100 17 95.3864 21.4676 93.4229 26.8066L93.2422 27.3135C91.424 32.6103 90.9318 39.7631 93.4229 44.1318L93.668 44.5479C95.9082 48.2209 99.0478 50.1387 99.8223 50.5732L100 50.6699C100.025 50.6572 103.768 48.7523 106.332 44.5479L106.577 44.1318C109.149 39.6222 108.54 32.1458 106.577 26.8066C104.618 21.4805 100.022 17.0214 100 17Z" fill="#FC7CEC"/>
</svg>
