<svg width="200" height="200" viewBox="0 0 200 200" fill="none" xmlns="http://www.w3.org/2000/svg">
<rect width="200" height="200" rx="12" fill="black"/>
<path fill-rule="evenodd" clip-rule="evenodd" d="M89.3344 57.9676C93.8648 56.0829 98.006 56.7563 98.0338 56.7609L98.1213 56.9444C98.4943 57.7547 99.9137 61.1632 99.581 65.4593L99.5358 65.9413C98.9995 70.9494 94.424 76.4453 89.8594 79.6549L89.4173 79.9571C84.7105 83.115 78.3686 84 78.3686 84C78.3583 83.9413 77.252 77.6307 78.7747 72.1753C80.3047 66.6945 84.1792 60.2869 88.8933 58.1595L89.3344 57.9676Z" fill="white"/>
<path fill-rule="evenodd" clip-rule="evenodd" d="M76.3001 39.3268C81.9523 39.0976 89.2049 40.8256 92.672 44.6803L92.9897 45.0436C96.1627 48.7881 96.8107 52.9477 96.8181 52.996L96.6717 53.1369C96.0212 53.7443 93.2386 56.1568 89.0756 57.1659L88.6069 57.2716C83.7085 58.3058 77.1015 55.6242 72.6577 52.2471L72.235 51.9181C67.8152 48.4041 65.024 42.6417 65 42.5921C65.0313 42.5753 70.6635 39.5556 76.3001 39.3268Z" fill="white"/>
<path fill-rule="evenodd" clip-rule="evenodd" d="M100 17C100.022 17.0214 104.619 21.4806 106.577 26.807C108.541 32.1461 109.149 39.622 106.577 44.1316L106.332 44.5478C103.768 48.7525 100.025 50.6569 100 50.6696L99.8223 50.5732C99.0477 50.1386 95.9078 48.221 93.6675 44.5478L93.4225 44.1316C90.9314 39.7628 91.4238 32.6099 93.242 27.313L93.4225 26.807C95.386 21.4677 100 17 100 17Z" fill="white"/>
<path fill-rule="evenodd" clip-rule="evenodd" d="M123.166 39.3102L123.7 39.3268C129.344 39.5559 134.983 42.5832 135 42.5921C134.973 42.6486 132.182 48.4062 127.765 51.9181C123.326 55.447 116.449 58.3392 111.393 57.2716L110.924 57.1659C106.158 56.0107 103.202 53.0161 103.182 52.996L103.218 52.7967C103.389 51.9211 104.232 48.3229 107.01 45.0436L107.328 44.6803C110.687 40.946 117.598 39.2067 123.166 39.3102Z" fill="white"/>
<path fill-rule="evenodd" clip-rule="evenodd" d="M102.167 56.734C103.048 56.6274 106.708 56.3213 110.666 57.9676L111.107 58.1595C115.674 60.2204 119.453 66.2983 121.075 71.659L121.225 72.1753C122.749 77.6343 121.64 83.9493 121.631 84C121.601 83.9957 115.278 83.1074 110.583 79.9571C105.876 76.799 101.018 71.1108 100.464 65.9413L100.419 65.4593C100.038 60.5434 101.951 56.7899 101.966 56.7609L102.167 56.734Z" fill="white"/>
<path d="M102.645 57.6914C103.851 57.5892 106.952 57.5091 110.267 58.8838V58.8848L110.695 59.0703V59.0713C112.754 60.0002 114.714 61.8783 116.377 64.2461C117.928 66.4548 119.171 69.0212 119.965 71.4619L120.118 71.9482L120.262 72.4434V72.4443C120.984 75.0324 121.09 77.8595 121.004 80.0771C120.96 81.2123 120.865 82.1718 120.785 82.8359C120.136 82.7079 119.207 82.5021 118.13 82.1963C116.007 81.5937 113.364 80.6195 111.14 79.127C108.876 77.6081 106.566 75.4722 104.762 73.0986C102.952 70.7177 101.713 68.1788 101.46 65.8477L101.415 65.3662C101.139 61.7536 102.18 58.8028 102.645 57.6914ZM89.7334 58.8848C93.0548 57.5071 96.1591 57.5903 97.3545 57.6914C97.8238 58.8139 98.8604 61.7617 98.585 65.3662L98.54 65.8477C98.2949 68.105 97.1254 70.5585 95.4053 72.877C93.693 75.1848 91.4901 77.2837 89.2949 78.8291L88.8525 79.1318C86.6242 80.625 83.9783 81.5986 81.8555 82.2002C80.7993 82.4995 79.8861 82.7029 79.2393 82.8311C79.2313 82.8326 79.2227 82.8334 79.2148 82.835C79.2125 82.8158 79.2094 82.796 79.207 82.7764C79.1282 82.1126 79.0386 81.175 78.9961 80.0732C78.9105 77.8561 79.0164 75.0307 79.7383 72.4443C80.4745 69.8072 81.7792 66.935 83.4648 64.4746C85.1591 62.0019 87.1782 60.0297 89.3037 59.0703L89.7334 58.8848ZM76.3408 40.3262C79.0585 40.216 82.1739 40.577 85.0186 41.4297C87.8714 42.2848 90.3542 43.6042 91.9189 45.3379V45.3389L92.2266 45.6895V45.6904C94.5699 48.4558 95.4513 51.47 95.7236 52.6426C94.8092 53.4378 92.3448 55.3408 88.8555 56.1904L88.3965 56.293C86.1904 56.7578 83.5104 56.3988 80.7852 55.4678C78.0755 54.5421 75.4107 53.0821 73.2715 51.458H73.2725L72.8486 51.1289C70.7581 49.4645 69.0258 47.2443 67.8018 45.4023C67.1721 44.4548 66.6864 43.6204 66.3633 43.0352C66.9644 42.7539 67.8402 42.3686 68.8965 41.9766C70.9658 41.2085 73.6713 40.4345 76.3408 40.3262ZM123.135 40.3086V40.3096L123.659 40.3252V40.3262C126.332 40.4347 129.042 41.2104 131.112 41.9795C132.164 42.3703 133.036 42.7537 133.636 43.0342C132.691 44.7451 130.356 48.5811 127.143 51.1357C125.008 52.8329 122.276 54.3831 119.477 55.376C116.664 56.3736 113.881 56.7733 111.603 56.293L111.145 56.1904C107.644 55.3382 105.178 53.4267 104.274 52.6406C104.55 51.4546 105.436 48.4469 107.772 45.6895L108.08 45.3379C109.595 43.6589 111.973 42.3683 114.717 41.5107C117.449 40.6568 120.457 40.2602 123.135 40.3086ZM100 18.4414C100.451 18.9295 101.082 19.6461 101.775 20.5312C103.141 22.275 104.71 24.6275 105.639 27.1523C106.583 29.7212 107.205 32.8165 107.278 35.8047C107.352 38.8021 106.872 41.589 105.716 43.624L105.479 44.0273C103.594 47.1164 101.027 48.889 99.999 49.5156C98.9959 48.904 96.578 47.2309 94.7217 44.3467L94.5215 44.0273L94.2842 43.624C93.1649 41.6535 92.6782 38.9767 92.7158 36.083C92.7533 33.202 93.3097 30.1995 94.1836 27.6494L94.3604 27.1514L94.3613 27.1523C95.2921 24.6213 96.8664 22.2634 98.2344 20.5186C98.9143 19.6513 99.5347 18.9464 99.9834 18.46C99.989 18.4539 99.9945 18.4474 100 18.4414Z" stroke="white" stroke-width="2"/>
<path d="M55 126C55 126 68.5 106 100 106C131.5 106 145 126 145 126V183H55V126Z" fill="white"/>
<path d="M65 134.143C65 134.143 75.5 117 100 117C124.5 117 135 134.143 135 134.143V183H65V134.143Z" fill="black"/>
<path d="M145 82C145 82 149.5 72 160 72C170.5 72 175 82 175 82V175C175 179.418 171.418 183 167 183H145V82Z" fill="white"/>
<path d="M150 86.7568C150 86.7568 153 80 160 80C167 80 170 86.7568 170 86.7568V147C170 151.418 166.418 155 162 155H150V86.7568Z" fill="black"/>
<path d="M70 136.595C70 136.595 73 132 80 132C87 132 90 136.595 90 136.595V175C90 179.418 86.4183 183 82 183H70V136.595Z" fill="white"/>
<path d="M130 136.595C130 136.595 127 132 120 132C113 132 110 136.595 110 136.595V175C110 179.418 113.582 183 118 183H130V136.595Z" fill="white"/>
<path d="M25 82C25 82 29.5 72 40 72C50.5 72 55 82 55 82V183H33C28.5817 183 25 179.418 25 175V82Z" fill="white"/>
<path d="M50 86.7568C50 86.7568 47 80 40 80C33 80 30 86.7568 30 86.7568V147C30 151.418 33.5817 155 38 155H50V86.7568Z" fill="black"/>
</svg>
