<svg width="320" height="240" viewBox="0 0 320 240" fill="none" xmlns="http://www.w3.org/2000/svg">
<rect width="320" height="240" fill="#D9D9D9"/>
<path fill-rule="evenodd" clip-rule="evenodd" d="M182.5 90C189.404 90 195 95.5964 195 102.5C195 109.404 189.404 115 182.5 115C175.596 115 170 109.404 170 102.5C170 95.5964 175.596 90 182.5 90ZM182.5 95C178.358 95 175 98.3579 175 102.5C175 106.642 178.358 110 182.5 110C186.642 110 190 106.642 190 102.5C190 98.3579 186.642 95 182.5 95Z" fill="white"/>
<path fill-rule="evenodd" clip-rule="evenodd" d="M198.31 70.0039C198.454 70.0076 198.598 70.0147 198.741 70.0234C198.804 70.0273 198.867 70.0304 198.93 70.0352C199.109 70.0489 199.286 70.0674 199.463 70.0889C199.488 70.092 199.514 70.0944 199.539 70.0977C199.716 70.1203 199.892 70.1474 200.066 70.1777C200.08 70.1801 200.093 70.1822 200.106 70.1846C200.248 70.2096 200.388 70.2386 200.527 70.2686C200.637 70.2921 200.747 70.3181 200.855 70.3447C200.941 70.3655 201.026 70.3865 201.11 70.4092C201.206 70.4348 201.301 70.4614 201.396 70.4893C201.497 70.5192 201.599 70.5504 201.699 70.583C201.785 70.6108 201.87 70.6403 201.955 70.6699C202.043 70.7007 202.131 70.7318 202.219 70.7646C202.323 70.804 202.427 70.8456 202.53 70.8877C202.606 70.9188 202.682 70.9498 202.758 70.9824C202.86 71.0266 202.961 71.0732 203.062 71.1201C203.135 71.1543 203.209 71.188 203.281 71.2236C203.378 71.2714 203.475 71.3208 203.57 71.3711C203.648 71.4118 203.725 71.4528 203.802 71.4951C203.891 71.5445 203.979 71.5959 204.066 71.6475C204.144 71.693 204.222 71.738 204.298 71.7852C204.393 71.844 204.487 71.9054 204.58 71.9668C204.641 72.0069 204.702 72.0467 204.763 72.0879C204.858 72.1528 204.951 72.2196 205.044 72.2871C205.11 72.3349 205.175 72.3826 205.24 72.4316C205.331 72.5004 205.42 72.5713 205.509 72.6426C205.565 72.6877 205.621 72.7322 205.677 72.7783C205.765 72.8518 205.851 72.928 205.937 73.0039C205.999 73.0589 206.062 73.1127 206.123 73.1689C206.19 73.2305 206.255 73.2943 206.32 73.3574C206.395 73.4295 206.47 73.5013 206.543 73.5752C206.6 73.6326 206.655 73.6915 206.71 73.75C206.785 73.8291 206.86 73.9081 206.933 73.9893C206.994 74.058 207.054 74.1281 207.114 74.1982C207.175 74.2691 207.236 74.3398 207.295 74.4121C207.36 74.492 207.423 74.5737 207.486 74.6553C207.541 74.7255 207.596 74.7948 207.649 74.8662C207.714 74.9533 207.775 75.043 207.837 75.1318C207.88 75.1927 207.923 75.2527 207.965 75.3145C208.027 75.4073 208.087 75.502 208.146 75.5967C208.193 75.6708 208.242 75.7441 208.287 75.8193C208.339 75.9051 208.387 75.9929 208.437 76.0801C208.48 76.1565 208.525 76.2322 208.566 76.3096C208.603 76.3765 208.636 76.445 208.671 76.5127C208.723 76.6141 208.776 76.7153 208.825 76.8184C208.862 76.8948 208.896 76.9725 208.931 77.0498C208.978 77.1532 209.025 77.2564 209.069 77.3613C209.115 77.4712 209.157 77.5828 209.2 77.6943C209.226 77.7614 209.254 77.8278 209.278 77.8955C209.301 77.9585 209.322 78.0224 209.344 78.0859C209.387 78.2103 209.43 78.3348 209.469 78.4609C209.489 78.5278 209.507 78.5957 209.526 78.6631C209.56 78.7808 209.595 78.8984 209.626 79.0176C209.68 79.2273 209.727 79.4393 209.77 79.6533C209.803 79.8233 209.834 79.9945 209.86 80.167C209.866 80.2007 209.869 80.2347 209.874 80.2686C209.926 80.6255 209.963 80.9872 209.982 81.3535C209.987 81.4444 209.99 81.5356 209.993 81.627C209.997 81.7509 210 81.8752 210 82V158C210 158.249 209.991 158.496 209.976 158.741C209.972 158.802 209.969 158.862 209.965 158.923C209.951 159.104 209.932 159.284 209.91 159.463C209.908 159.485 209.906 159.507 209.903 159.528C209.86 159.866 209.801 160.199 209.73 160.527C209.707 160.637 209.681 160.747 209.654 160.855C209.633 160.941 209.612 161.026 209.59 161.11C209.564 161.205 209.538 161.3 209.511 161.394C209.481 161.496 209.449 161.598 209.416 161.699C209.388 161.785 209.359 161.87 209.329 161.955C209.298 162.043 209.267 162.131 209.234 162.219C209.195 162.323 209.153 162.427 209.111 162.53C209.08 162.606 209.049 162.682 209.017 162.758C208.972 162.86 208.926 162.961 208.879 163.062C208.845 163.135 208.811 163.209 208.775 163.281C208.732 163.37 208.687 163.459 208.641 163.547C208.596 163.632 208.551 163.717 208.504 163.802C208.458 163.884 208.412 163.965 208.364 164.046C208.315 164.13 208.265 164.215 208.214 164.298C208.156 164.391 208.096 164.483 208.036 164.575C207.995 164.638 207.954 164.701 207.911 164.763C207.846 164.858 207.779 164.951 207.712 165.044C207.664 165.11 207.616 165.175 207.567 165.24C207.499 165.331 207.428 165.42 207.356 165.509C207.311 165.565 207.267 165.621 207.221 165.677C207.147 165.765 207.072 165.851 206.996 165.937C206.941 165.999 206.886 166.062 206.83 166.123C206.768 166.19 206.705 166.255 206.642 166.32C206.57 166.395 206.498 166.47 206.424 166.543C206.366 166.6 206.308 166.655 206.249 166.71C206.17 166.785 206.091 166.86 206.01 166.933C205.941 166.994 205.871 167.054 205.801 167.114C205.73 167.175 205.659 167.236 205.587 167.295C205.507 167.36 205.425 167.423 205.344 167.486C205.274 167.541 205.204 167.597 205.133 167.649C205.046 167.714 204.956 167.775 204.867 167.837C204.802 167.883 204.737 167.929 204.671 167.974C204.582 168.033 204.492 168.09 204.402 168.146C204.328 168.193 204.255 168.242 204.18 168.287C204.094 168.339 204.006 168.387 203.919 168.437C203.839 168.482 203.759 168.529 203.678 168.572C203.586 168.622 203.493 168.668 203.399 168.715C203.323 168.754 203.247 168.794 203.169 168.831C203.071 168.878 202.972 168.921 202.873 168.965C202.795 169 202.717 169.036 202.638 169.069C202.528 169.115 202.416 169.157 202.305 169.2C202.238 169.226 202.171 169.254 202.104 169.278C202.009 169.313 201.912 169.344 201.816 169.376C201.721 169.408 201.626 169.442 201.529 169.472C201.448 169.497 201.365 169.518 201.283 169.541C201.183 169.57 201.083 169.6 200.981 169.626C200.834 169.664 200.685 169.696 200.535 169.729C200.492 169.738 200.449 169.749 200.406 169.758C200.381 169.763 200.355 169.767 200.33 169.772C200.165 169.805 199.999 169.835 199.832 169.86C199.798 169.866 199.764 169.869 199.73 169.874C199.56 169.899 199.389 169.921 199.217 169.938C199.204 169.94 199.191 169.941 199.179 169.942C199.002 169.96 198.824 169.973 198.646 169.982C198.555 169.987 198.463 169.99 198.372 169.993C198.248 169.997 198.124 170 198 170H122C115.373 170 110 164.627 110 158V82C110 81.7831 110.005 81.5676 110.017 81.3535C110.036 80.9872 110.073 80.6254 110.125 80.2686C110.13 80.2347 110.134 80.2007 110.139 80.167C110.165 79.9944 110.197 79.8234 110.23 79.6533C110.273 79.4394 110.319 79.2272 110.373 79.0176C110.404 78.8983 110.44 78.7809 110.474 78.6631C110.493 78.5957 110.511 78.5278 110.531 78.4609C110.57 78.3348 110.613 78.2103 110.656 78.0859C110.678 78.0225 110.698 77.9584 110.721 77.8955C110.745 77.8278 110.773 77.7614 110.799 77.6943C110.842 77.5829 110.884 77.4712 110.93 77.3613C110.974 77.2563 111.022 77.1533 111.069 77.0498C111.104 76.9725 111.138 76.8948 111.175 76.8184C111.224 76.7153 111.277 76.6141 111.329 76.5127C111.364 76.445 111.397 76.3765 111.434 76.3096C111.475 76.2323 111.519 76.1563 111.562 76.0801C111.612 75.9929 111.66 75.9051 111.712 75.8193C111.757 75.7441 111.806 75.6708 111.853 75.5967C111.912 75.5019 111.973 75.4074 112.035 75.3145C112.077 75.2529 112.12 75.1926 112.162 75.1318C112.224 75.043 112.285 74.9533 112.35 74.8662C112.403 74.7948 112.458 74.7255 112.513 74.6553C112.576 74.5737 112.639 74.492 112.704 74.4121C112.763 74.3398 112.824 74.2691 112.885 74.1982C112.945 74.1281 113.005 74.058 113.066 73.9893C113.139 73.9081 113.214 73.8291 113.289 73.75C113.344 73.6915 113.399 73.6326 113.456 73.5752C113.529 73.5013 113.604 73.4295 113.679 73.3574C113.744 73.2943 113.809 73.2305 113.876 73.1689C113.937 73.1127 114 73.0589 114.062 73.0039C114.148 72.928 114.234 72.8518 114.322 72.7783C114.378 72.7322 114.434 72.6877 114.49 72.6426C114.579 72.5713 114.668 72.5004 114.759 72.4316C114.824 72.3826 114.889 72.3349 114.955 72.2871C115.048 72.2196 115.141 72.1528 115.236 72.0879C115.297 72.0467 115.358 72.0069 115.419 71.9668C115.512 71.9054 115.606 71.844 115.701 71.7852C115.778 71.738 115.855 71.693 115.933 71.6475C116.02 71.5959 116.108 71.5445 116.197 71.4951C116.274 71.4527 116.351 71.4118 116.429 71.3711C116.524 71.3208 116.621 71.2714 116.718 71.2236C116.79 71.188 116.864 71.1544 116.938 71.1201C117.038 71.0732 117.139 71.0266 117.241 70.9824C117.317 70.9498 117.393 70.9188 117.469 70.8877C117.572 70.8455 117.676 70.804 117.78 70.7646C117.868 70.7318 117.956 70.7007 118.044 70.6699C118.129 70.6403 118.214 70.6108 118.3 70.583C118.4 70.5504 118.502 70.5193 118.604 70.4893C118.698 70.4614 118.793 70.4348 118.889 70.4092C118.973 70.3865 119.058 70.3656 119.144 70.3447C119.252 70.3181 119.362 70.2922 119.472 70.2686C119.611 70.2386 119.751 70.2096 119.893 70.1846C119.906 70.1822 119.919 70.1801 119.933 70.1777C120.107 70.1474 120.283 70.1203 120.46 70.0977C120.485 70.0944 120.511 70.092 120.536 70.0889C120.713 70.0674 120.89 70.0489 121.069 70.0352C121.075 70.0347 121.08 70.0346 121.086 70.0342L121.383 70.0156C121.587 70.0053 121.793 70 122 70H198L198.31 70.0039ZM143.162 130.357C138.719 126.671 132.281 126.671 127.838 130.357L115 141.009V158C115 161.866 118.134 165 122 165H184.332C183.749 164.205 183.049 163.452 182.221 162.765L143.162 130.357ZM122 75C121.789 75 121.581 75.0101 121.375 75.0283C117.802 75.3445 115 78.3447 115 82V134.512L124.646 126.51C130.94 121.288 140.06 121.288 146.354 126.51L185.413 158.917C187.526 160.67 189.08 162.754 190.1 165H198C198.21 165 198.418 164.989 198.624 164.971C202.198 164.655 205 161.656 205 158V82C205 81.8831 204.997 81.7669 204.991 81.6514C204.982 81.4577 204.962 81.2664 204.938 81.0771C204.486 77.6475 201.553 75 198 75H122Z" fill="white"/>
</svg>
