<svg width="240" height="240" viewBox="0 0 240 240" fill="none" xmlns="http://www.w3.org/2000/svg">
<rect width="240" height="240" fill="#D9D9D9"/>
<path fill-rule="evenodd" clip-rule="evenodd" d="M142.5 90C149.404 90 155 95.5964 155 102.5C155 109.404 149.404 115 142.5 115C135.596 115 130 109.404 130 102.5C130 95.5964 135.596 90 142.5 90ZM142.5 95C138.358 95 135 98.3579 135 102.5C135 106.642 138.358 110 142.5 110C146.642 110 150 106.642 150 102.5C150 98.3579 146.642 95 142.5 95Z" fill="white"/>
<path fill-rule="evenodd" clip-rule="evenodd" d="M158.31 70.0039C158.454 70.0076 158.598 70.0147 158.741 70.0234C158.804 70.0273 158.867 70.0304 158.93 70.0352C159.109 70.0489 159.286 70.0674 159.463 70.0889C159.488 70.092 159.514 70.0944 159.539 70.0977C159.716 70.1203 159.892 70.1474 160.066 70.1777C160.08 70.1801 160.093 70.1822 160.106 70.1846C160.248 70.2096 160.388 70.2386 160.527 70.2686C160.637 70.2921 160.747 70.3181 160.855 70.3447C160.941 70.3655 161.026 70.3865 161.11 70.4092C161.206 70.4348 161.301 70.4614 161.396 70.4893C161.497 70.5192 161.599 70.5504 161.699 70.583C161.785 70.6108 161.87 70.6403 161.955 70.6699C162.043 70.7007 162.131 70.7318 162.219 70.7646C162.323 70.804 162.427 70.8456 162.53 70.8877C162.606 70.9188 162.682 70.9498 162.758 70.9824C162.86 71.0266 162.961 71.0732 163.062 71.1201C163.135 71.1543 163.209 71.188 163.281 71.2236C163.378 71.2714 163.475 71.3208 163.57 71.3711C163.648 71.4118 163.725 71.4528 163.802 71.4951C163.891 71.5445 163.979 71.5959 164.066 71.6475C164.144 71.693 164.222 71.738 164.298 71.7852C164.393 71.844 164.487 71.9054 164.58 71.9668C164.641 72.0069 164.702 72.0467 164.763 72.0879C164.858 72.1528 164.951 72.2196 165.044 72.2871C165.11 72.3349 165.175 72.3826 165.24 72.4316C165.331 72.5004 165.42 72.5713 165.509 72.6426C165.565 72.6877 165.621 72.7322 165.677 72.7783C165.765 72.8518 165.851 72.928 165.937 73.0039C165.999 73.0589 166.062 73.1127 166.123 73.1689C166.19 73.2305 166.255 73.2943 166.32 73.3574C166.395 73.4295 166.47 73.5013 166.543 73.5752C166.6 73.6326 166.655 73.6915 166.71 73.75C166.785 73.8291 166.86 73.9081 166.933 73.9893C166.994 74.058 167.054 74.1281 167.114 74.1982C167.175 74.2691 167.236 74.3398 167.295 74.4121C167.36 74.492 167.423 74.5737 167.486 74.6553C167.541 74.7255 167.596 74.7948 167.649 74.8662C167.714 74.9533 167.775 75.043 167.837 75.1318C167.88 75.1927 167.923 75.2527 167.965 75.3145C168.027 75.4073 168.087 75.502 168.146 75.5967C168.193 75.6708 168.242 75.7441 168.287 75.8193C168.339 75.9051 168.387 75.9929 168.437 76.0801C168.48 76.1565 168.525 76.2322 168.566 76.3096C168.603 76.3765 168.636 76.445 168.671 76.5127C168.723 76.6141 168.776 76.7153 168.825 76.8184C168.862 76.8948 168.896 76.9725 168.931 77.0498C168.978 77.1532 169.025 77.2564 169.069 77.3613C169.115 77.4712 169.157 77.5828 169.2 77.6943C169.226 77.7614 169.254 77.8278 169.278 77.8955C169.301 77.9585 169.322 78.0224 169.344 78.0859C169.387 78.2103 169.43 78.3348 169.469 78.4609C169.489 78.5278 169.507 78.5957 169.526 78.6631C169.56 78.7808 169.595 78.8984 169.626 79.0176C169.68 79.2273 169.727 79.4393 169.77 79.6533C169.803 79.8233 169.834 79.9945 169.86 80.167C169.866 80.2007 169.869 80.2347 169.874 80.2686C169.926 80.6255 169.963 80.9872 169.982 81.3535C169.987 81.4444 169.99 81.5356 169.993 81.627C169.997 81.7509 170 81.8752 170 82V158C170 158.249 169.991 158.496 169.976 158.741C169.972 158.802 169.969 158.862 169.965 158.923C169.951 159.104 169.932 159.284 169.91 159.463C169.908 159.485 169.906 159.507 169.903 159.528C169.86 159.866 169.801 160.199 169.73 160.527C169.707 160.637 169.681 160.747 169.654 160.855C169.633 160.941 169.612 161.026 169.59 161.11C169.564 161.205 169.538 161.3 169.511 161.394C169.481 161.496 169.449 161.598 169.416 161.699C169.388 161.785 169.359 161.87 169.329 161.955C169.298 162.043 169.267 162.131 169.234 162.219C169.195 162.323 169.153 162.427 169.111 162.53C169.08 162.606 169.049 162.682 169.017 162.758C168.972 162.86 168.926 162.961 168.879 163.062C168.845 163.135 168.811 163.209 168.775 163.281C168.732 163.37 168.687 163.459 168.641 163.547C168.596 163.632 168.551 163.717 168.504 163.802C168.458 163.884 168.412 163.965 168.364 164.046C168.315 164.13 168.265 164.215 168.214 164.298C168.156 164.391 168.096 164.483 168.036 164.575C167.995 164.638 167.954 164.701 167.911 164.763C167.846 164.858 167.779 164.951 167.712 165.044C167.664 165.11 167.616 165.175 167.567 165.24C167.499 165.331 167.428 165.42 167.356 165.509C167.311 165.565 167.267 165.621 167.221 165.677C167.147 165.765 167.072 165.851 166.996 165.937C166.941 165.999 166.886 166.062 166.83 166.123C166.768 166.19 166.705 166.255 166.642 166.32C166.57 166.395 166.498 166.47 166.424 166.543C166.366 166.6 166.308 166.655 166.249 166.71C166.17 166.785 166.091 166.86 166.01 166.933C165.941 166.994 165.871 167.054 165.801 167.114C165.73 167.175 165.659 167.236 165.587 167.295C165.507 167.36 165.425 167.423 165.344 167.486C165.274 167.541 165.204 167.597 165.133 167.649C165.046 167.714 164.956 167.775 164.867 167.837C164.802 167.883 164.737 167.929 164.671 167.974C164.582 168.033 164.492 168.09 164.402 168.146C164.328 168.193 164.255 168.242 164.18 168.287C164.094 168.339 164.006 168.387 163.919 168.437C163.839 168.482 163.759 168.529 163.678 168.572C163.586 168.622 163.493 168.668 163.399 168.715C163.323 168.754 163.247 168.794 163.169 168.831C163.071 168.878 162.972 168.921 162.873 168.965C162.795 169 162.717 169.036 162.638 169.069C162.528 169.115 162.416 169.157 162.305 169.2C162.238 169.226 162.171 169.254 162.104 169.278C162.009 169.313 161.912 169.344 161.816 169.376C161.721 169.408 161.626 169.442 161.529 169.472C161.448 169.497 161.365 169.518 161.283 169.541C161.183 169.57 161.083 169.6 160.981 169.626C160.834 169.664 160.685 169.696 160.535 169.729C160.492 169.738 160.449 169.749 160.406 169.758C160.381 169.763 160.355 169.767 160.33 169.772C160.165 169.805 159.999 169.835 159.832 169.86C159.798 169.866 159.764 169.869 159.73 169.874C159.56 169.899 159.389 169.921 159.217 169.938C159.204 169.94 159.191 169.941 159.179 169.942C159.002 169.96 158.824 169.973 158.646 169.982C158.555 169.987 158.463 169.99 158.372 169.993C158.248 169.997 158.124 170 158 170H82C75.3726 170 70 164.627 70 158V82C70 81.7831 70.0052 81.5676 70.0166 81.3535C70.036 80.9872 70.0734 80.6254 70.125 80.2686C70.1299 80.2347 70.1335 80.2007 70.1387 80.167C70.1651 79.9944 70.1968 79.8234 70.2305 79.6533C70.2729 79.4394 70.3194 79.2272 70.373 79.0176C70.4035 78.8983 70.4396 78.7809 70.4736 78.6631C70.4931 78.5957 70.5106 78.5278 70.5312 78.4609C70.5701 78.3348 70.6133 78.2103 70.6562 78.0859C70.6781 78.0225 70.6978 77.9584 70.7207 77.8955C70.7453 77.8278 70.773 77.7614 70.7988 77.6943C70.8417 77.5829 70.8836 77.4712 70.9297 77.3613C70.9738 77.2563 71.0224 77.1533 71.0693 77.0498C71.1044 76.9725 71.1382 76.8948 71.1748 76.8184C71.2242 76.7153 71.2769 76.6141 71.3291 76.5127C71.364 76.445 71.3974 76.3765 71.4336 76.3096C71.4753 76.2323 71.5192 76.1563 71.5625 76.0801C71.612 75.9929 71.6603 75.9051 71.7119 75.8193C71.7572 75.7441 71.8056 75.6708 71.8525 75.5967C71.9125 75.5019 71.9727 75.4074 72.0352 75.3145C72.0765 75.2529 72.1196 75.1926 72.1621 75.1318C72.2243 75.043 72.2851 74.9533 72.3496 74.8662C72.4025 74.7948 72.4583 74.7255 72.5127 74.6553C72.5759 74.5737 72.6388 74.492 72.7041 74.4121C72.7632 74.3398 72.8241 74.2691 72.8848 74.1982C72.9448 74.1281 73.0048 74.058 73.0664 73.9893C73.1392 73.9081 73.2141 73.8291 73.2891 73.75C73.3445 73.6915 73.3995 73.6326 73.4561 73.5752C73.529 73.5013 73.6039 73.4295 73.6787 73.3574C73.7442 73.2943 73.809 73.2305 73.876 73.1689C73.9371 73.1127 74.0003 73.0589 74.0625 73.0039C74.1485 72.928 74.2341 72.8518 74.3223 72.7783C74.3776 72.7322 74.4341 72.6877 74.4902 72.6426C74.579 72.5713 74.668 72.5004 74.7588 72.4316C74.8235 72.3826 74.8893 72.3349 74.9551 72.2871C75.048 72.2196 75.1414 72.1528 75.2363 72.0879C75.2966 72.0467 75.3579 72.0069 75.4189 71.9668C75.5124 71.9054 75.6059 71.844 75.7012 71.7852C75.7775 71.738 75.8552 71.693 75.9326 71.6475C76.0203 71.5959 76.1081 71.5445 76.1973 71.4951C76.2738 71.4527 76.3512 71.4118 76.4287 71.3711C76.5244 71.3208 76.6206 71.2714 76.7178 71.2236C76.7904 71.188 76.864 71.1544 76.9375 71.1201C77.0382 71.0732 77.1391 71.0266 77.2412 70.9824C77.3166 70.9498 77.3926 70.9188 77.4688 70.8877C77.572 70.8455 77.6756 70.804 77.7803 70.7646C77.8676 70.7318 77.9557 70.7007 78.0439 70.6699C78.1289 70.6403 78.214 70.6108 78.2998 70.583C78.4005 70.5504 78.5017 70.5193 78.6035 70.4893C78.6981 70.4614 78.7931 70.4348 78.8887 70.4092C78.9732 70.3865 79.0583 70.3656 79.1436 70.3447C79.2524 70.3181 79.3617 70.2922 79.4717 70.2686C79.6112 70.2386 79.7513 70.2096 79.8926 70.1846C79.9059 70.1822 79.9193 70.1801 79.9326 70.1777C80.1072 70.1474 80.2829 70.1203 80.46 70.0977C80.4853 70.0944 80.5107 70.092 80.5361 70.0889C80.7127 70.0674 80.8904 70.0489 81.0693 70.0352C81.0749 70.0347 81.0804 70.0346 81.0859 70.0342L81.3828 70.0156C81.5872 70.0053 81.793 70 82 70H158L158.31 70.0039ZM103.162 130.357C98.7191 126.671 92.2809 126.671 87.8379 130.357L75 141.009V158C75 161.866 78.134 165 82 165H144.332C143.749 164.205 143.049 163.452 142.221 162.765L103.162 130.357ZM82 75C81.7893 75 81.5809 75.0101 81.375 75.0283C77.8018 75.3445 75 78.3447 75 82V134.512L84.6455 126.51C90.9398 121.288 100.06 121.288 106.354 126.51L145.413 158.917C147.526 160.67 149.08 162.754 150.1 165H158C158.21 165 158.418 164.989 158.624 164.971C162.198 164.655 165 161.656 165 158V82C165 81.8831 164.997 81.7669 164.991 81.6514C164.982 81.4577 164.962 81.2664 164.938 81.0771C164.486 77.6475 161.553 75 158 75H82Z" fill="white"/>
</svg>
